<?xml version="1.0" encoding="utf-8"?>
<!-- Generator: Adobe Illustrator 19.0.0, SVG Export Plug-In . SVG Version: 6.00 Build 0)  -->
<svg version="1.1" id="Layer_1" xmlns="http://www.w3.org/2000/svg" xmlns:xlink="http://www.w3.org/1999/xlink" x="0px" y="0px"
	 viewBox="0 0 1080 365.8" style="enable-background:new 0 0 1080 365.8;" xml:space="preserve">
<style type="text/css">
	.st0{stroke:#382D31;stroke-width:3;stroke-miterlimit:10;}
</style>
<g id="XMLID_18_">
	<g id="XMLID_19_">
		<path id="XMLID_20_" class="st0" d="M384.6,147.9c11,0,20.5,4,28.3,12c7.8,7.9,11.7,17.5,11.7,28.8c0,11.2-3.9,20.8-11.7,28.7
			c-7.8,7.9-17.3,11.9-28.3,11.9c-10.1,0-19-3.4-26.6-10.3v3.5c0,1.9-0.6,3.5-1.9,4.8c-1.3,1.3-2.9,1.9-4.8,1.9
			c-1.9,0-3.5-0.6-4.8-1.9c-1.3-1.3-1.9-2.9-1.9-4.8v-95.5c0-1.9,0.6-3.5,1.9-4.8c1.3-1.3,3-2,4.8-2c1.8,0,3.4,0.7,4.8,2
			c1.3,1.3,1.9,2.9,1.9,4.8v31C365.7,151.3,374.5,147.9,384.6,147.9z M384.6,215.8c7.3,0,13.6-2.6,18.8-7.9
			c5.2-5.3,7.7-11.7,7.7-19.2c0-7.5-2.6-13.9-7.7-19.3c-5.2-5.3-11.5-7.9-18.8-7.9c-7.3,0-13.6,2.6-18.8,7.9
			c-5.2,5.3-7.8,11.8-7.8,19.3c0,7.5,2.6,13.9,7.8,19.2C371.1,213.2,377.3,215.8,384.6,215.8z"/>
		<path id="XMLID_23_" class="st0" d="M443.1,217.4c-3.8-3.8-6.7-8-8.7-12.9c-2.2-5.1-3.2-10.3-3.2-15.8c0-11.3,4-20.9,12-28.9
			c3.8-3.8,8.2-6.7,13.1-8.7c5.1-2.2,10.4-3.2,16-3.2c11.3,0,20.9,4,29,12c3.8,3.8,6.7,8.1,8.7,13c2.2,5.1,3.2,10.4,3.2,15.9
			c0,1.9-0.6,3.5-1.9,4.8c-1.3,1.3-3,2-4.8,2h-60.8c1.5,5.9,4.8,10.7,9.7,14.5c5,3.9,10.6,5.8,17,5.8c10,0,17.7-3.1,23.2-9.2
			c1.2-1.4,2.7-2.1,4.6-2.2c1.9-0.1,3.5,0.5,4.9,1.7c1.4,1.3,2.1,2.8,2.2,4.7c0.1,1.8-0.5,3.4-1.7,4.8c-8.1,9.1-19.2,13.7-33.2,13.7
			C460.8,229.3,451.2,225.4,443.1,217.4z M498.7,182c-1.5-6-4.7-10.9-9.6-14.7c-5-3.9-10.7-5.8-17-5.8c-6.4,0-12,1.9-17,5.8
			c-4.9,3.9-8.1,8.8-9.6,14.7H498.7z"/>
		<path id="XMLID_26_" class="st0" d="M561.3,147.9c1.9,0,3.5,0.7,4.8,2c1.3,1.3,2,2.9,2,4.8s-0.7,3.5-2,4.8c-1.3,1.3-2.9,2-4.8,2
			c-6.6,0-12.2,2.6-16.9,7.9c-4.7,5.3-7,11.8-7,19.3v33.9c0,1.9-0.6,3.5-1.9,4.8c-1.3,1.3-2.9,1.9-4.8,1.9c-1.9,0-3.5-0.6-4.8-1.9
			c-1.3-1.3-1.9-2.9-1.9-4.8v-67.9c0-1.9,0.6-3.5,1.9-4.8c1.3-1.3,3-2,4.8-2c1.8,0,3.4,0.7,4.8,2c1.3,1.3,1.9,2.9,1.9,4.8v2.7
			C544.3,151,552.3,147.9,561.3,147.9z"/>
		<path id="XMLID_28_" class="st0" d="M614.2,147.9c1.9,0,3.5,0.7,4.8,2c1.3,1.3,2,2.9,2,4.8s-0.7,3.5-2,4.8c-1.3,1.3-2.9,2-4.8,2
			c-6.6,0-12.2,2.6-16.9,7.9c-4.7,5.3-7,11.8-7,19.3v33.9c0,1.9-0.6,3.5-1.9,4.8c-1.3,1.3-2.9,1.9-4.8,1.9c-1.9,0-3.5-0.6-4.8-1.9
			c-1.3-1.3-2-2.9-2-4.8v-67.9c0-1.9,0.7-3.5,2-4.8c1.3-1.3,3-2,4.8-2c1.8,0,3.4,0.7,4.8,2c1.3,1.3,1.9,2.9,1.9,4.8v2.7
			C597.2,151,605.2,147.9,614.2,147.9z"/>
		<path id="XMLID_30_" class="st0" d="M693.3,152.1c0.4,0.9,0.6,1.7,0.6,2.6c0,0.9-0.2,1.7-0.6,2.6l-40.7,95.5
			c-1.2,2.7-3.2,4.1-6.2,4.1c-0.9,0-1.8-0.2-2.6-0.5c-1.7-0.7-3-1.9-3.7-3.7c-0.3-0.8-0.5-1.7-0.5-2.5c0-0.9,0.2-1.8,0.6-2.7
			l10.6-24.9L623,157.3c-0.4-0.9-0.6-1.8-0.6-2.7c0-0.9,0.2-1.7,0.5-2.5c0.7-1.7,1.9-3,3.7-3.7c0.9-0.4,1.7-0.6,2.6-0.6
			c0.9,0,1.7,0.2,2.5,0.5c1.7,0.7,3,1.9,3.7,3.6l22.7,53.4l22.7-53.4c0.7-1.7,1.9-2.9,3.7-3.6c0.8-0.3,1.7-0.5,2.5-0.5
			s1.8,0.2,2.7,0.6C691.4,149.2,692.6,150.4,693.3,152.1z"/>
		<path id="XMLID_32_" class="st0" d="M742.6,147.9c11,0,20.5,4,28.3,12c7.8,7.9,11.7,17.5,11.7,28.8c0,11.2-3.9,20.8-11.7,28.7
			c-7.8,7.9-17.3,11.9-28.3,11.9c-10.1,0-19-3.4-26.6-10.3v3.5c0,1.9-0.6,3.5-1.9,4.8c-1.3,1.3-2.9,1.9-4.8,1.9
			c-1.9,0-3.5-0.6-4.8-1.9c-1.3-1.3-2-2.9-2-4.8v-95.5c0-1.9,0.7-3.5,2-4.8c1.3-1.3,3-2,4.8-2c1.8,0,3.4,0.7,4.8,2
			c1.3,1.3,1.9,2.9,1.9,4.8v31C723.7,151.3,732.5,147.9,742.6,147.9z M742.6,215.8c7.3,0,13.6-2.6,18.8-7.9
			c5.2-5.3,7.7-11.7,7.7-19.2c0-7.5-2.6-13.9-7.7-19.3c-5.2-5.3-11.5-7.9-18.8-7.9c-7.3,0-13.6,2.6-18.8,7.9
			c-5.2,5.3-7.8,11.8-7.8,19.3c0,7.5,2.6,13.9,7.8,19.2C729.1,213.2,735.3,215.8,742.6,215.8z"/>
		<path id="XMLID_35_" class="st0" d="M829.2,147.9c11,0,20.5,4,28.3,12c7.8,7.9,11.8,17.5,11.8,28.8c0,11.2-3.9,20.8-11.8,28.7
			c-7.8,7.9-17.3,11.9-28.3,11.9c-11.1,0-20.5-4-28.3-11.9c-7.8-7.9-11.8-17.5-11.8-28.7c0-11.3,3.9-20.9,11.8-28.8
			C808.7,151.9,818.1,147.9,829.2,147.9z M829.2,215.8c7.3,0,13.6-2.6,18.8-7.9c5.2-5.3,7.8-11.7,7.8-19.2c0-7.5-2.6-13.9-7.8-19.3
			c-5.2-5.3-11.5-7.9-18.8-7.9s-13.6,2.6-18.8,7.9c-5.2,5.3-7.8,11.8-7.8,19.3c0,7.5,2.6,13.9,7.8,19.2
			C815.6,213.2,821.9,215.8,829.2,215.8z"/>
		<path id="XMLID_38_" class="st0" d="M939.8,218.4c1.2,1.4,1.6,3.1,1.4,5c-0.2,1.8-1,3.3-2.5,4.5c-1.3,1-2.7,1.5-4.3,1.5
			c-2.2,0-3.9-0.8-5.3-2.5l-22-27.4l-22,27.4c-1.3,1.7-3.1,2.5-5.3,2.5c-1.6,0-3-0.5-4.2-1.5c-1.5-1.2-2.3-2.6-2.5-4.5
			c-0.2-1.9,0.3-3.5,1.4-5l23.9-29.7l-23.9-29.7c-1.2-1.4-1.6-3.1-1.4-4.9c0.2-1.9,1-3.4,2.5-4.5c1.4-1.2,3.1-1.7,4.9-1.4
			c1.9,0.2,3.4,1,4.5,2.5l22,27.4l22-27.4c1.2-1.4,2.7-2.3,4.5-2.5c1.8-0.2,3.5,0.2,5,1.4c1.4,1.2,2.3,2.7,2.5,4.5
			c0.2,1.8-0.3,3.5-1.4,4.9l-23.9,29.7L939.8,218.4z"/>
	</g>
	<g id="XMLID_1_">
		<path id="XMLID_8_" class="st0" d="M274,151c0-0.2,0-0.4,0-0.6c0-0.4-0.1-0.9-0.1-1.3c0-0.2,0-0.5-0.1-0.7c0-0.4-0.1-0.8-0.2-1.2
			c0-0.2-0.1-0.4-0.1-0.7c-0.1-0.5-0.2-1-0.3-1.5c0-0.2-0.1-0.3-0.1-0.5c-0.1-0.5-0.2-1-0.4-1.6c-0.1-0.2-0.1-0.5-0.2-0.7
			c-0.1-0.3-0.2-0.7-0.3-1c-0.1-0.3-0.2-0.5-0.3-0.8c-0.1-0.3-0.2-0.6-0.3-0.9c-0.1-0.3-0.2-0.6-0.3-0.8c-0.1-0.3-0.2-0.6-0.3-0.8
			c-0.2-0.5-0.4-1.1-0.7-1.6c-0.1-0.2-0.2-0.5-0.3-0.7c-0.2-0.3-0.3-0.6-0.5-0.9c-0.1-0.2-0.2-0.4-0.3-0.6c-0.2-0.3-0.3-0.6-0.5-0.9
			c-0.1-0.2-0.2-0.4-0.3-0.6c-0.2-0.3-0.4-0.6-0.6-1c-0.1-0.1-0.2-0.3-0.2-0.4c-7.2-11.3-19.8-18.8-34.2-18.8c-4,0-7.9,0.6-11.5,1.7
			c-5.7-12.4-18.2-21-32.7-21c-14.8,0-27.6,9-33.1,21.8c-4.3-1.6-9-2.5-13.9-2.5c-22.4,0-40.6,18.2-40.6,40.6
			c0,18,11.8,33.3,28,38.6c-2.7,4.7-4.2,10-4.2,15.8c0,9,3.7,17.1,9.7,22.9c0,0,0.1,0.1,0.1,0.1c0.4,0.4,0.8,0.7,1.2,1.1
			c0.1,0.1,0.1,0.1,0.2,0.2c0.4,0.4,0.8,0.7,1.3,1c0,0,0.1,0.1,0.1,0.1c1,0.7,2,1.4,3,2c0.1,0,0.1,0.1,0.2,0.1
			c0.4,0.3,0.9,0.5,1.3,0.7c0.1,0.1,0.2,0.1,0.4,0.2c0.4,0.2,0.8,0.4,1.2,0.6c0.1,0.1,0.3,0.1,0.4,0.2c0.4,0.2,0.8,0.4,1.3,0.5
			c0.1,0,0.2,0.1,0.4,0.1c1.1,0.4,2.2,0.8,3.4,1.1c0.2,0,0.3,0.1,0.5,0.1c0.4,0.1,0.8,0.2,1.3,0.3c0.2,0,0.4,0.1,0.6,0.1
			c0.4,0.1,0.8,0.1,1.2,0.2c0.2,0,0.4,0.1,0.6,0.1c0.4,0,0.8,0.1,1.2,0.1c0.2,0,0.4,0.2,0.6,0.2c0.6,0,1.2,0.2,1.8,0.2c0,0,0,0,0,0
			c0,0,0,0,0,0c0,0,0,0,0,0c0,0,0.1,0.9,0.1,1.5c0,0,0,0,0,0v0c0,12.1,6.7,22.6,16.6,28c0.5,0.2,0.9,0.5,1.3,0.7
			c2.3,1.1,4.8,2,7.4,2.5c2.1,0.4,4.2,0.6,6.4,0.6s4.3-0.2,6.4-0.6c2.6-0.5,5.1-1.4,7.4-2.5c0.5-0.2,0.9-0.2,1.4-0.4
			c9.9-5.4,16.9-15.7,16.9-27.7h0.2c0,0,0-0.5,0-0.5c0-0.6-0.5-1.5-0.5-1.5c0,0,0,0,0,0c0,0,0,0,0,0c6,0,11.7-1.9,16.5-4.8
			c0.4-0.3,0.9-0.6,1.3-0.9c1.7-1.1,3.3-2.5,4.7-3.9c0.7-0.7,1.4-1.5,2.1-2.3s1.3-1.6,1.8-2.5c0.9-1.3,1.6-2.6,2.3-4
			c0.4-0.9,0.9-1.9,1.2-2.9c0.7-2,1.2-4,1.6-6.1c0.2-1.6,0.4-3.2,0.4-4.9l0,0v0c0-6.1-1.7-11.8-4.7-16.6
			c15.1-5.9,25.8-20.6,25.8-37.8l0,0v0C274,152.3,274,151.6,274,151z"/>
		<circle id="XMLID_9_" class="st0" cx="966.5" cy="217.5" r="11.8"/>
	</g>
</g>
</svg>
